<svg version="1.1" id="Layer_1" xmlns="http://www.w3.org/2000/svg" xmlns:xlink="http://www.w3.org/1999/xlink" x="0px" y="0px"
	 width="100%" viewBox="0 0 688 112" xml:space="preserve">
<path fill="#000000" opacity="1.000000" stroke="transparent" 
	d="
M175.294830,28.623634 
	C207.581146,29.091440 239.398590,29.339487 271.205750,30.049114 
	C319.337982,31.122961 367.475708,31.611790 415.615082,32.129833 
	C440.576324,32.398453 465.409698,34.587906 490.228455,37.382183 
	C513.174744,39.965645 536.062500,43.135788 559.118347,44.813660 
	C571.040405,45.681274 582.917358,47.301018 594.774231,48.884071 
	C603.006958,49.983265 607.958435,57.103943 606.264404,64.729362 
	C605.530029,68.035423 603.779053,70.155136 600.383667,71.465431 
	C593.276184,74.208244 586.037903,75.806175 578.447327,75.323143 
	C569.391235,74.746834 560.507019,76.229607 551.639343,77.507996 
	C545.771790,78.353889 540.068726,78.214417 534.262695,77.414864 
	C531.663696,77.056961 528.985962,76.811478 528.282532,73.921288 
	C527.504150,70.722961 530.042664,69.037659 532.403320,67.819977 
	C539.190063,64.319191 546.660950,63.488087 554.113098,62.651558 
	C555.510803,62.494659 557.033325,63.115913 558.918335,61.646278 
	C550.783813,61.206116 543.240967,60.455978 535.697021,60.443512 
	C471.545685,60.337490 407.392242,60.064526 343.243530,60.478748 
	C310.454712,60.690472 277.685150,62.380924 244.922333,64.006142 
	C218.659210,65.308952 192.508316,67.997543 166.263687,69.454536 
	C155.141998,70.071968 144.164169,72.065300 133.161011,73.776802 
	C126.398170,74.828758 119.545807,75.015167 112.844696,73.190948 
	C98.570602,69.305161 89.812386,49.478836 97.217064,37.825256 
	C101.532570,31.033466 108.148735,28.187151 115.868637,28.039537 
	C135.521713,27.663752 155.182770,27.202164 175.294830,28.623634 
z"/>
</svg>