<svg fill="#000000" width="80" height="40" viewBox="0 0 48 24" xmlns="http://www.w3.org/2000/svg">
  <rect width="48" height="24" fill="white"/>
  <g transform="translate(12, 0)">
    <path d="M22,6H19V3a1,1,0,0,0-1-1H14a1,1,0,0,0-1,1V6H11V3a1,1,0,0,0-1-1H6A1,1,0,0,0,5,3V6H2A1,1,0,0,0,1,7V21a1,1,0,0,0,1,1H22a1,1,0,0,0,1-1V7A1,1,0,0,0,22,6ZM15,4h2v7H15ZM7,4H9v7H7ZM21,20H17V15a1,1,0,0,0-2,0v5H9V15a1,1,0,0,0-2,0v5H3V8H5v4a1,1,0,0,0,1,1h4a1,1,0,0,0,1-1V8h2v4a1,1,0,0,0,1,1h4a1,1,0,0,0,1-1V8h2Z"/>
  </g>
</svg>
